#define esw_logo_width 115
#define esw_logo_height 19
static unsigned char status_icons_bits[] = {
   0x00,0x00,0x00,0x00,0x00,0x00,0x00,0x00,0x00,0x00,0x00,0x00,0x7F,0xFF,0xE0,
0x00,0x00,0x00,0x00,0x00,0x00,0x00,0x00,0x00,0x00,0x00,0x00,0x70,0x00,0xE0,
0x00,0x00,0x00,0x00,0x00,0x00,0x00,0x00,0x00,0x00,0x00,0x00,0x61,0xF8,0x60,
0x00,0x00,0x00,0x00,0x00,0x00,0x00,0x00,0x00,0x00,0x00,0x00,0x41,0xF8,0x20,
0x00,0x00,0x00,0x00,0x00,0x00,0x00,0x00,0x00,0x00,0x00,0x00,0x40,0xF0,0x20,
0x00,0x00,0x00,0x00,0x00,0x00,0x00,0x00,0x00,0x00,0x00,0x00,0x40,0x60,0x20,
0x00,0x00,0x00,0x00,0x00,0x00,0x00,0x00,0x00,0x00,0x00,0x00,0x58,0x01,0xA0,
0x7F,0x80,0x00,0x3F,0xC0,0x00,0x3F,0xC0,0x00,0x41,0x04,0x00,0x5C,0x63,0xA0,
0xFB,0xC0,0x00,0x79,0xE0,0x00,0x79,0xE0,0x00,0x20,0x82,0x00,0x5E,0xF7,0xA0,
0xF3,0xC0,0x00,0x76,0xE0,0x00,0x76,0xE0,0x00,0x20,0x82,0x00,0x5E,0xF7,0xA0,
0xEB,0xC0,0x00,0x7E,0xE0,0x00,0x7E,0xE0,0x00,0x41,0x04,0x00,0x5C,0x63,0xA0,
0x7B,0x80,0x00,0x3D,0xC0,0x00,0x39,0xC0,0x00,0x82,0x08,0x00,0x58,0x01,0xA0,
0x7B,0x80,0x00,0x3B,0xC0,0x00,0x3E,0xC0,0x01,0x04,0x10,0x00,0x40,0x60,0x20,
0xFB,0xC0,0x00,0x77,0xE0,0x00,0x76,0xE0,0x01,0x04,0x10,0x00,0x40,0xF0,0x20,
0xFB,0xC0,0x00,0x70,0xE0,0x00,0x79,0xE0,0x00,0x82,0x08,0x00,0x41,0xF8,0x20,
0xFF,0xC0,0x00,0x7F,0xE0,0x00,0x7F,0xE0,0x00,0x41,0x04,0x00,0x61,0xF8,0x60,
0x3F,0x00,0x00,0x1F,0x80,0x00,0x1F,0x80,0x00,0x00,0x00,0x00,0x70,0x00,0xE0,
0x1E,0x00,0x00,0x0F,0x00,0x00,0x0F,0x00,0x01,0xFF,0xFF,0x80,0x7F,0xFF,0xE0,
0x0C,0x00,0x00,0x06,0x00,0x00,0x06,0x00,0x01,0xFF,0xFF,0x80,0x00,0x00,0x00
 };
